<?xml version="1.0" standalone="no"?>
<!DOCTYPE svg PUBLIC "-//W3C//DTD SVG 20010904//EN"
 "http://www.w3.org/TR/2001/REC-SVG-20010904/DTD/svg10.dtd">
<svg version="1.0" xmlns="http://www.w3.org/2000/svg"
 width="634.000000pt" height="634.000000pt" viewBox="0 0 634.000000 634.000000"
 preserveAspectRatio="xMidYMid meet">
<metadata>
Created by potrace 1.14, written by Peter Selinger 2001-2017
</metadata>
<g transform="translate(0.000000,634.000000) scale(0.100000,-0.100000)"
fill="#000000" stroke="none">
<path d="M463 5110 c-39 -24 -56 -53 -56 -100 0 -50 26 -94 67 -114 29 -14 80
-16 376 -16 215 0 348 -4 361 -10 27 -15 35 -33 147 -332 56 -148 115 -288
132 -313 36 -52 78 -86 146 -117 l49 -23 1500 0 c1602 0 1543 2 1601 -49 39
-33 35 -98 -21 -318 -158 -622 -377 -1467 -387 -1491 -24 -61 46 -57 -1121
-57 l-1068 0 -22 23 c-12 12 -51 99 -86 192 -68 182 -97 233 -162 289 -79 67
-103 71 -474 71 -297 0 -333 -2 -362 -18 -62 -33 -81 -113 -43 -175 36 -59 56
-63 395 -62 194 1 311 -3 324 -9 18 -10 57 -99 128 -296 45 -123 98 -188 193
-233 l55 -27 1120 0 1120 0 55 26 c31 14 72 40 92 58 70 61 89 119 254 761 85
333 183 711 216 840 56 216 61 244 62 345 1 101 -1 115 -27 167 -49 100 -140
163 -277 191 -65 14 -268 17 -1549 21 -1111 5 -1477 9 -1488 18 -22 18 -34 45
-138 323 -54 143 -111 281 -127 307 -35 56 -111 115 -175 134 -36 11 -128 14
-412 14 -345 0 -368 -1 -398 -20z"/>
<path d="M534 3807 c-68 -62 -51 -168 32 -203 29 -12 114 -14 540 -12 l506 3
34 37 c27 30 34 46 34 78 0 23 -7 54 -15 70 -31 61 -24 60 -585 60 l-510 0
-36 -33z"/>
<path d="M1901 3827 c-88 -45 -87 -179 2 -220 28 -13 185 -14 1197 -10 697 3
1172 9 1183 15 28 14 57 69 57 106 0 19 -8 47 -17 63 -37 62 32 59 -1240 59
-899 0 -1163 -3 -1182 -13z"/>
<path d="M834 3224 c-87 -46 -85 -186 3 -223 21 -8 310 -11 1096 -9 l1069 3
29 32 c16 18 32 45 35 59 10 40 -13 100 -47 124 l-30 22 -1062 4 c-966 4
-1065 3 -1093 -12z"/>
<path d="M3240 3201 c-52 -52 -52 -126 1 -177 l30 -29 429 0 430 0 30 30 c39
40 48 90 25 139 -32 67 -27 66 -495 66 l-422 0 -28 -29z"/>
<path d="M2385 2699 c-54 -27 -80 -112 -51 -167 36 -71 2 -67 676 -63 482 2
610 6 631 17 26 13 59 68 59 98 0 35 -30 86 -62 106 -32 19 -48 20 -633 19
-377 0 -607 -4 -620 -10z"/>
<path d="M3769 1883 c-152 -78 -188 -283 -69 -401 71 -71 160 -95 254 -68 112
33 179 124 179 246 0 190 -194 309 -364 223z"/>
</g>
</svg>
